# xmcd CD database file
#
# Track frame offsets:
#	150
#	33472
#	48602
#	71067
#	112657
#	130965
#	159277
#	183952
#	207875
#	221472
#
# Disc length: 3553 seconds
#
# Revision: 0
# Processed by: cddbd v1.5PL3 Copyright (c) Steve Scherf et al.
# Submitted via: CDex 1.51
#
DISCID=880ddf0a
DTITLE=Tribal Tech - Rocket Science
DYEAR=2000
DGENRE=Jazz
TTITLE0=Saturn 5
TTITLE1=Astro Chimp
TTITLE2=Song Holy Hall
TTITLE3=Rocket Science
TTITLE4=Sojlevska
TTITLE5=Mini Me
TTITLE6=Space Camel
TTITLE7=Moonshine
TTITLE8=Cap 'N' Kirk
TTITLE9=The Econoline
EXTD=YEAR: 2000
EXTT0=
EXTT1=
EXTT2=
EXTT3=
EXTT4=
EXTT5=
EXTT6=
EXTT7=
EXTT8=
EXTT9=
PLAYORDER=
